<?xml version="1.0" encoding="UTF-8"?>
<svg width="402px" height="544px" viewBox="0 0 402 544" version="1.1" xmlns="http://www.w3.org/2000/svg" xmlns:xlink="http://www.w3.org/1999/xlink">
    <!-- Generator: sketchtool 44.1 (41455) - http://www.bohemiancoding.com/sketch -->
    <title>12416A36-46DA-4E40-939F-ABC9CD17B41E</title>
    <desc>Created with sketchtool.</desc>
    <defs>
        <rect id="path-1" x="0" y="0" width="402" height="544"></rect>
    </defs>
    <g id="Login-/-Register" stroke="none" stroke-width="1" fill="none" fill-rule="evenodd">
        <g id="Login" transform="translate(-512.000000, -45.000000)">
            <g id="Group-2" transform="translate(110.000000, 45.000000)">
                <g id="Illustration" transform="translate(402.000000, 0.000000)">
                    <mask id="mask-2" fill="white">
                        <use xlink:href="#path-1"></use>
                    </mask>
                    <use id="Rectangle-Copy" fill="#6CD9C1" fill-rule="evenodd" xlink:href="#path-1"></use>
                    <g id="Group-2" stroke-width="1" fill-rule="evenodd" mask="url(#mask-2)">
                        <g transform="translate(-9.000000, 68.000000)">
                            <polygon id="Line" fill-opacity="0.0825860507" fill="#65CDB6" fill-rule="nonzero" points="9 443 9 213 428.5 0 428.5 230"></polygon>
                            <polygon id="Line-Copy" fill-opacity="0.0825860507" fill="#41A38E" fill-rule="nonzero" points="9 443 9 453 428.5 240 428.5 230"></polygon>
                            <g id="Package-Medium" fill="none" transform="translate(310.000000, 53.000000)" stroke-width="1" fill-rule="evenodd">
                                <g id="Group-8-Copy-2">
                                    <path d="M4.5,35.5074242 C4.5,34.2606832 5.39093316,32.7846465 6.49306965,32.208977 L58.5069304,5.04102299 C59.6076723,4.46608187 61.3874801,4.45944765 62.4942692,5.0324314 L115.005731,32.2175686 C116.107135,32.7877647 117,34.265377 117,35.5074242 L117,89.4925758 C117,90.7393168 116.11252,92.2094477 115.005731,92.7824314 L62.4942692,119.967569 C61.3928647,120.537765 59.6090668,120.534647 58.5069304,119.958977 L6.49306965,92.791023 C5.39232768,92.2160819 4.5,90.734623 4.5,89.4925758 L4.5,35.5074242 Z" id="Path-2" fill="#8DECD9"></path>
                                    <path d="M14.0046742,33.3621385 L34.1754777,43.8045456 L55.6659632,32.6789403 L35.8367995,21.9488121 C27.5738453,26.2718034 19.1558163,30.6709266 14.0046742,33.3621385 Z M40.6436689,19.4333454 L60.4982897,30.1772492 L80.8874129,19.6218181 L60.4254231,9.02866408 C60.4701388,9.044011 51.2718362,13.8700366 40.6436689,19.4333454 Z M85.7814453,22.1554544 L65.284028,32.7669492 L86.2403085,44.1069926 L86.2403085,44.1069926 L107.211935,33.25 L85.7814453,22.1554544 Z M112.5,40.6469185 L91,51.7774495 L91,100.148715 C102.334195,94.2743203 112.5,89.0123735 112.5,89.0123735 L112.5,40.6469185 Z M86,102.740643 L86,54.3659451 L65,65.2376265 L65,113.647908 C69.7926777,111.148451 77.8605861,106.960845 86,102.740643 Z M56,113.572685 L56,65.2376265 L35,54.3659451 L35,102.603935 L56,113.572685 Z M30,99.9923275 L30,51.7774495 L9,40.9057681 L9,89.0235775 L30,99.9923275 Z M4.4096972,28.2202981 L56.4235579,1.0523441 C58.825067,-0.202015584 62.1543726,-0.210805261 64.5631153,1.03619871 L117.074577,28.2213359 C119.671126,29.5655668 121.5,32.5855515 121.5,35.5074242 L121.5,89.4925758 C121.5,92.419404 119.676284,95.4317625 117.074577,96.7786641 L64.5631153,123.963801 C62.1583285,125.208757 58.8250256,125.201994 56.4235579,123.947656 L4.4096972,96.7797019 C1.82247555,95.4283406 -4.21884749e-15,92.4092548 0,89.4925758 L7.37188088e-14,35.5074242 C7.68274333e-14,32.5866292 1.82057882,29.5726501 4.4096972,28.2202981 Z M81.407982,46.6086837 L60.4517015,35.2686403 L39.0695102,46.3381819 L60.5,57.4327275 L81.407982,46.6086837 L81.407982,46.6086837 Z" id="Combined-Shape" fill="#41A38E" fill-rule="nonzero"></path>
                                </g>
                            </g>
                            <g id="Package-Big" fill="none" transform="translate(167.000000, 79.000000)">
                                <path d="M6,48.0098989 C6,46.3475776 7.19321405,44.3795287 8.66928971,43.6119694 L78.3307103,7.38803065 C79.8049183,6.62144249 82.1932141,6.62047131 83.6692897,7.38803065 L153.33071,43.6119694 C154.804918,44.3785575 156,46.3374251 156,48.0098989 L156,119.990101 C156,121.652422 154.806786,123.620471 153.33071,124.388031 L83.6692897,160.611969 C82.1950817,161.378558 79.8067859,161.379529 78.3307103,160.611969 L8.66928971,124.388031 C7.19508171,123.621442 6,121.662575 6,119.990101 L6,48.0098989 Z" id="Path-2-Copy-2" fill="#8DECD9" fill-rule="evenodd"></path>
                                <path d="M12,54.8827213 L12,119.357279 L39,133.397279 L39,68.9227213 L12,54.8827213 Z M19.0043855,44.9995591 L46.0590006,59.067959 L74.5769138,44.2386442 L48.1081884,29.8520014 C37.1471599,35.5605018 25.9618742,41.3803048 19.0043855,44.9995591 Z M54.523776,26.5100747 L80.9979747,40.8996925 L108.053767,26.8306803 L80.9011733,12.7113315 C80.955309,12.726119 68.7067551,19.1203686 54.523776,26.5100747 Z M114.556384,30.212041 L87.3567029,44.3558752 L115.165807,59.471059 L142.994767,45 L114.556384,30.212041 Z M150,54.8827213 L123,68.9227213 L123,133.405587 C137.413767,125.902298 150,119.357279 150,119.357279 L150,54.8827213 Z M117,136.529396 L117,72.0427213 L87,87.6427213 L87,152.174119 C93.7954297,148.617613 105.505574,142.514666 117,136.529396 Z M75,152.117279 L75,87.6427213 L45,72.0427213 L45,136.517279 L75,152.117279 Z M0,48.0098989 C0,44.109124 2.43925883,40.0888641 5.90117329,38.2886685 L75.5625939,2.06472984 C78.7723237,0.395670314 83.2265996,0.395110461 86.4374061,2.06472984 L156.098827,38.2886685 C159.560882,40.0889373 162,44.1012272 162,48.0098989 L162,119.990101 C162,123.890876 159.560741,127.911136 156.098827,129.711331 L86.4374061,165.93527 C83.2276763,167.60433 78.7734004,167.60489 75.5625939,165.93527 L5.90117329,129.711331 C2.43911804,127.911063 0,123.898773 0,119.990101 L0,48.0098989 Z M108.744746,62.8100107 L80.9356419,47.6948269 L52.5616173,62.4493197 L81,77.2372787 L108.744746,62.8100107 Z" id="Combined-Shape" fill="#41A38E" fill-rule="nonzero"></path>
                            </g>
                            <g id="Package-small" fill="none" transform="translate(81.000000, 159.000000)">
                                <path d="M0,14.0032996 C0,13.4491925 0.392690301,12.795801 0.889763236,12.5373231 L24.1102368,0.462676883 C24.6016394,0.207147496 25.3926903,0.204198956 25.8897632,0.462676883 L49.1102368,12.5373231 C49.6016394,12.7928525 50,13.4512787 50,14.0032996 L50,37.9967004 C50,38.5508075 49.6073097,39.204199 49.1102368,39.4626769 L25.8897632,51.5373231 C25.3983606,51.7928525 24.6073097,51.795801 24.1102368,51.5373231 L0.889763236,39.4626769 C0.39836057,39.2071475 0,38.5487213 0,37.9967004 L0,14.0032996 Z" id="Path-2" fill="#8DECD9" fill-rule="evenodd"></path>
                                <path d="M2,16.2942404 L2,37.7857596 L11,42.4657596 L11,20.9742404 L2,16.2942404 Z M4.3349734,12.9999457 L13.3530002,17.6893197 L22.8589713,12.7462147 L14.03678,7.95105691 C10.3829682,9.85381442 6.65430085,11.7936167 4.3349734,12.9999457 Z M16.1753771,6.8371183 L24.9993249,11.6332308 L34.0179224,6.94356011 L24.9670578,2.23711049 C24.9847625,2.24304914 20.9025074,4.37428592 16.1753771,6.8371183 Z M36.1854613,8.07068034 L27.118901,12.7852917 L36.3886023,17.8236863 L45.6649222,13 L36.1854613,8.07068034 Z M48,16.2942404 L39,20.9742404 L39,20.9742404 L39,42.4679095 C43.8045888,39.9670723 48,37.7857596 48,37.7857596 L48,16.2942404 Z M37,43.5090799 L37,22.0142404 L27,27.2142404 L27,48.7239879 C29.2651425,47.5382387 33.1685243,45.5039961 37,43.5090799 Z M23,48.7057596 L23,27.2142404 L13,22.0142404 L13,43.5057596 L23,48.7057596 Z M-2,14.0032996 C-2,12.7019826 -1.19103624,11.3650984 -0.0329422372,10.7628895 L23.1875313,-1.31175672 C24.2585185,-1.86867007 25.7382175,-1.87036734 26.8124687,-1.31175672 L50.0329422,10.7628895 C51.1860661,11.3625139 52,12.704872 52,14.0032996 L52,37.9967004 C52,39.2980174 51.1910362,40.6349016 50.0329422,41.2371105 L26.8124687,53.3117567 C25.7414815,53.8686701 24.2617825,53.8703673 23.1875313,53.3117567 L-0.0329422372,41.2371105 C-1.18606607,40.6374861 -2,39.295128 -2,37.9967004 L-2,14.0032996 Z M34.2482487,18.9366702 L24.9785473,13.8982756 L15.5205391,18.8164399 L25,23.7457596 L34.2482487,18.9366702 L34.2482487,18.9366702 Z" id="Combined-Shape" fill="#41A38E" fill-rule="nonzero"></path>
                            </g>
                            <g id="Package-small" fill="none" transform="translate(81.000000, 133.000000)">
                                <path d="M0,14.0032996 C0,13.4491925 0.392690301,12.795801 0.889763236,12.5373231 L24.1102368,0.462676883 C24.6016394,0.207147496 25.3926903,0.204198956 25.8897632,0.462676883 L49.1102368,12.5373231 C49.6016394,12.7928525 50,13.4512787 50,14.0032996 L50,37.9967004 C50,38.5508075 49.6073097,39.204199 49.1102368,39.4626769 L25.8897632,51.5373231 C25.3983606,51.7928525 24.6073097,51.795801 24.1102368,51.5373231 L0.889763236,39.4626769 C0.39836057,39.2071475 0,38.5487213 0,37.9967004 L0,14.0032996 Z" id="Path-2" fill="#8DECD9" fill-rule="evenodd"></path>
                                <path d="M2,16.2942404 L2,37.7857596 L11,42.4657596 L11,20.9742404 L2,16.2942404 Z M4.3349734,12.9999457 L13.3530002,17.6893197 L22.8589713,12.7462147 L14.03678,7.95105691 C10.3829682,9.85381442 6.65430085,11.7936167 4.3349734,12.9999457 Z M16.1753771,6.8371183 L24.9993249,11.6332308 L34.0179224,6.94356011 L24.9670578,2.23711049 C24.9847625,2.24304914 20.9025074,4.37428592 16.1753771,6.8371183 Z M36.1854613,8.07068034 L27.118901,12.7852917 L36.3886023,17.8236863 L45.6649222,13 L36.1854613,8.07068034 Z M48,16.2942404 L39,20.9742404 L39,20.9742404 L39,42.4679095 C43.8045888,39.9670723 48,37.7857596 48,37.7857596 L48,16.2942404 Z M37,43.5090799 L37,22.0142404 L27,27.2142404 L27,48.7239879 C29.2651425,47.5382387 33.1685243,45.5039961 37,43.5090799 Z M23,48.7057596 L23,27.2142404 L13,22.0142404 L13,43.5057596 L23,48.7057596 Z M-2,14.0032996 C-2,12.7019826 -1.19103624,11.3650984 -0.0329422372,10.7628895 L23.1875313,-1.31175672 C24.2585185,-1.86867007 25.7382175,-1.87036734 26.8124687,-1.31175672 L50.0329422,10.7628895 C51.1860661,11.3625139 52,12.704872 52,14.0032996 L52,37.9967004 C52,39.2980174 51.1910362,40.6349016 50.0329422,41.2371105 L26.8124687,53.3117567 C25.7414815,53.8686701 24.2617825,53.8703673 23.1875313,53.3117567 L-0.0329422372,41.2371105 C-1.18606607,40.6374861 -2,39.295128 -2,37.9967004 L-2,14.0032996 Z M34.2482487,18.9366702 L24.9785473,13.8982756 L15.5205391,18.8164399 L25,23.7457596 L34.2482487,18.9366702 L34.2482487,18.9366702 Z" id="Combined-Shape" fill="#41A38E" fill-rule="nonzero"></path>
                            </g>
                            <g id="Package-small" fill="none" transform="translate(81.000000, 106.000000)">
                                <path d="M0,14.0032996 C0,13.4491925 0.392690301,12.795801 0.889763236,12.5373231 L24.1102368,0.462676883 C24.6016394,0.207147496 25.3926903,0.204198956 25.8897632,0.462676883 L49.1102368,12.5373231 C49.6016394,12.7928525 50,13.4512787 50,14.0032996 L50,37.9967004 C50,38.5508075 49.6073097,39.204199 49.1102368,39.4626769 L25.8897632,51.5373231 C25.3983606,51.7928525 24.6073097,51.795801 24.1102368,51.5373231 L0.889763236,39.4626769 C0.39836057,39.2071475 0,38.5487213 0,37.9967004 L0,14.0032996 Z" id="Path-2" fill="#8DECD9" fill-rule="evenodd"></path>
                                <path d="M2,16.2942404 L2,37.7857596 L11,42.4657596 L11,20.9742404 L2,16.2942404 Z M4.3349734,12.9999457 L13.3530002,17.6893197 L22.8589713,12.7462147 L14.03678,7.95105691 C10.3829682,9.85381442 6.65430085,11.7936167 4.3349734,12.9999457 Z M16.1753771,6.8371183 L24.9993249,11.6332308 L34.0179224,6.94356011 L24.9670578,2.23711049 C24.9847625,2.24304914 20.9025074,4.37428592 16.1753771,6.8371183 Z M36.1854613,8.07068034 L27.118901,12.7852917 L36.3886023,17.8236863 L45.6649222,13 L36.1854613,8.07068034 Z M48,16.2942404 L39,20.9742404 L39,20.9742404 L39,42.4679095 C43.8045888,39.9670723 48,37.7857596 48,37.7857596 L48,16.2942404 Z M37,43.5090799 L37,22.0142404 L27,27.2142404 L27,48.7239879 C29.2651425,47.5382387 33.1685243,45.5039961 37,43.5090799 Z M23,48.7057596 L23,27.2142404 L13,22.0142404 L13,43.5057596 L23,48.7057596 Z M-2,14.0032996 C-2,12.7019826 -1.19103624,11.3650984 -0.0329422372,10.7628895 L23.1875313,-1.31175672 C24.2585185,-1.86867007 25.7382175,-1.87036734 26.8124687,-1.31175672 L50.0329422,10.7628895 C51.1860661,11.3625139 52,12.704872 52,14.0032996 L52,37.9967004 C52,39.2980174 51.1910362,40.6349016 50.0329422,41.2371105 L26.8124687,53.3117567 C25.7414815,53.8686701 24.2617825,53.8703673 23.1875313,53.3117567 L-0.0329422372,41.2371105 C-1.18606607,40.6374861 -2,39.295128 -2,37.9967004 L-2,14.0032996 Z M34.2482487,18.9366702 L24.9785473,13.8982756 L15.5205391,18.8164399 L25,23.7457596 L34.2482487,18.9366702 L34.2482487,18.9366702 Z" id="Combined-Shape" fill="#41A38E" fill-rule="nonzero"></path>
                            </g>
                            <g id="Package-small" fill="none" transform="translate(93.000000, 222.000000)">
                                <path d="M0,14.0032996 C0,13.4491925 0.392690301,12.795801 0.889763236,12.5373231 L24.1102368,0.462676883 C24.6016394,0.207147496 25.3926903,0.204198956 25.8897632,0.462676883 L49.1102368,12.5373231 C49.6016394,12.7928525 50,13.4512787 50,14.0032996 L50,37.9967004 C50,38.5508075 49.6073097,39.204199 49.1102368,39.4626769 L25.8897632,51.5373231 C25.3983606,51.7928525 24.6073097,51.795801 24.1102368,51.5373231 L0.889763236,39.4626769 C0.39836057,39.2071475 0,38.5487213 0,37.9967004 L0,14.0032996 Z" id="Path-2" fill="#8DECD9" fill-rule="evenodd"></path>
                                <path d="M2,16.2942404 L2,37.7857596 L11,42.4657596 L11,20.9742404 L2,16.2942404 Z M4.3349734,12.9999457 L13.3530002,17.6893197 L22.8589713,12.7462147 L14.03678,7.95105691 C10.3829682,9.85381442 6.65430085,11.7936167 4.3349734,12.9999457 Z M16.1753771,6.8371183 L24.9993249,11.6332308 L34.0179224,6.94356011 L24.9670578,2.23711049 C24.9847625,2.24304914 20.9025074,4.37428592 16.1753771,6.8371183 Z M36.1854613,8.07068034 L27.118901,12.7852917 L36.3886023,17.8236863 L45.6649222,13 L36.1854613,8.07068034 Z M48,16.2942404 L39,20.9742404 L39,20.9742404 L39,42.4679095 C43.8045888,39.9670723 48,37.7857596 48,37.7857596 L48,16.2942404 Z M37,43.5090799 L37,22.0142404 L27,27.2142404 L27,48.7239879 C29.2651425,47.5382387 33.1685243,45.5039961 37,43.5090799 Z M23,48.7057596 L23,27.2142404 L13,22.0142404 L13,43.5057596 L23,48.7057596 Z M-2,14.0032996 C-2,12.7019826 -1.19103624,11.3650984 -0.0329422372,10.7628895 L23.1875313,-1.31175672 C24.2585185,-1.86867007 25.7382175,-1.87036734 26.8124687,-1.31175672 L50.0329422,10.7628895 C51.1860661,11.3625139 52,12.704872 52,14.0032996 L52,37.9967004 C52,39.2980174 51.1910362,40.6349016 50.0329422,41.2371105 L26.8124687,53.3117567 C25.7414815,53.8686701 24.2617825,53.8703673 23.1875313,53.3117567 L-0.0329422372,41.2371105 C-1.18606607,40.6374861 -2,39.295128 -2,37.9967004 L-2,14.0032996 Z M34.2482487,18.9366702 L24.9785473,13.8982756 L15.5205391,18.8164399 L25,23.7457596 L34.2482487,18.9366702 L34.2482487,18.9366702 Z" id="Combined-Shape" fill="#41A38E" fill-rule="nonzero"></path>
                            </g>
                            <g id="Package-small" fill="none" transform="translate(93.000000, 309.000000)">
                                <path d="M0,14.0032996 C0,13.4491925 0.392690301,12.795801 0.889763236,12.5373231 L24.1102368,0.462676883 C24.6016394,0.207147496 25.3926903,0.204198956 25.8897632,0.462676883 L49.1102368,12.5373231 C49.6016394,12.7928525 50,13.4512787 50,14.0032996 L50,37.9967004 C50,38.5508075 49.6073097,39.204199 49.1102368,39.4626769 L25.8897632,51.5373231 C25.3983606,51.7928525 24.6073097,51.795801 24.1102368,51.5373231 L0.889763236,39.4626769 C0.39836057,39.2071475 0,38.5487213 0,37.9967004 L0,14.0032996 Z" id="Path-2" fill="#8DECD9" fill-rule="evenodd"></path>
                                <path d="M2,16.2942404 L2,37.7857596 L11,42.4657596 L11,20.9742404 L2,16.2942404 Z M4.3349734,12.9999457 L13.3530002,17.6893197 L22.8589713,12.7462147 L14.03678,7.95105691 C10.3829682,9.85381442 6.65430085,11.7936167 4.3349734,12.9999457 Z M16.1753771,6.8371183 L24.9993249,11.6332308 L34.0179224,6.94356011 L24.9670578,2.23711049 C24.9847625,2.24304914 20.9025074,4.37428592 16.1753771,6.8371183 Z M36.1854613,8.07068034 L27.118901,12.7852917 L36.3886023,17.8236863 L45.6649222,13 L36.1854613,8.07068034 Z M48,16.2942404 L39,20.9742404 L39,20.9742404 L39,42.4679095 C43.8045888,39.9670723 48,37.7857596 48,37.7857596 L48,16.2942404 Z M37,43.5090799 L37,22.0142404 L27,27.2142404 L27,48.7239879 C29.2651425,47.5382387 33.1685243,45.5039961 37,43.5090799 Z M23,48.7057596 L23,27.2142404 L13,22.0142404 L13,43.5057596 L23,48.7057596 Z M-2,14.0032996 C-2,12.7019826 -1.19103624,11.3650984 -0.0329422372,10.7628895 L23.1875313,-1.31175672 C24.2585185,-1.86867007 25.7382175,-1.87036734 26.8124687,-1.31175672 L50.0329422,10.7628895 C51.1860661,11.3625139 52,12.704872 52,14.0032996 L52,37.9967004 C52,39.2980174 51.1910362,40.6349016 50.0329422,41.2371105 L26.8124687,53.3117567 C25.7414815,53.8686701 24.2617825,53.8703673 23.1875313,53.3117567 L-0.0329422372,41.2371105 C-1.18606607,40.6374861 -2,39.295128 -2,37.9967004 L-2,14.0032996 Z M34.2482487,18.9366702 L24.9785473,13.8982756 L15.5205391,18.8164399 L25,23.7457596 L34.2482487,18.9366702 L34.2482487,18.9366702 Z" id="Combined-Shape" fill="#41A38E" fill-rule="nonzero"></path>
                            </g>
                            <g id="Package-small" fill="none" transform="translate(291.000000, 223.000000)">
                                <path d="M0,14.0032996 C0,13.4491925 0.392690301,12.795801 0.889763236,12.5373231 L24.1102368,0.462676883 C24.6016394,0.207147496 25.3926903,0.204198956 25.8897632,0.462676883 L49.1102368,12.5373231 C49.6016394,12.7928525 50,13.4512787 50,14.0032996 L50,37.9967004 C50,38.5508075 49.6073097,39.204199 49.1102368,39.4626769 L25.8897632,51.5373231 C25.3983606,51.7928525 24.6073097,51.795801 24.1102368,51.5373231 L0.889763236,39.4626769 C0.39836057,39.2071475 0,38.5487213 0,37.9967004 L0,14.0032996 Z" id="Path-2" fill="#8DECD9" fill-rule="evenodd"></path>
                                <path d="M2,16.2942404 L2,37.7857596 L11,42.4657596 L11,20.9742404 L2,16.2942404 Z M4.3349734,12.9999457 L13.3530002,17.6893197 L22.8589713,12.7462147 L14.03678,7.95105691 C10.3829682,9.85381442 6.65430085,11.7936167 4.3349734,12.9999457 Z M16.1753771,6.8371183 L24.9993249,11.6332308 L34.0179224,6.94356011 L24.9670578,2.23711049 C24.9847625,2.24304914 20.9025074,4.37428592 16.1753771,6.8371183 Z M36.1854613,8.07068034 L27.118901,12.7852917 L36.3886023,17.8236863 L45.6649222,13 L36.1854613,8.07068034 Z M48,16.2942404 L39,20.9742404 L39,20.9742404 L39,42.4679095 C43.8045888,39.9670723 48,37.7857596 48,37.7857596 L48,16.2942404 Z M37,43.5090799 L37,22.0142404 L27,27.2142404 L27,48.7239879 C29.2651425,47.5382387 33.1685243,45.5039961 37,43.5090799 Z M23,48.7057596 L23,27.2142404 L13,22.0142404 L13,43.5057596 L23,48.7057596 Z M-2,14.0032996 C-2,12.7019826 -1.19103624,11.3650984 -0.0329422372,10.7628895 L23.1875313,-1.31175672 C24.2585185,-1.86867007 25.7382175,-1.87036734 26.8124687,-1.31175672 L50.0329422,10.7628895 C51.1860661,11.3625139 52,12.704872 52,14.0032996 L52,37.9967004 C52,39.2980174 51.1910362,40.6349016 50.0329422,41.2371105 L26.8124687,53.3117567 C25.7414815,53.8686701 24.2617825,53.8703673 23.1875313,53.3117567 L-0.0329422372,41.2371105 C-1.18606607,40.6374861 -2,39.295128 -2,37.9967004 L-2,14.0032996 Z M34.2482487,18.9366702 L24.9785473,13.8982756 L15.5205391,18.8164399 L25,23.7457596 L34.2482487,18.9366702 L34.2482487,18.9366702 Z" id="Combined-Shape" fill="#41A38E" fill-rule="nonzero"></path>
                            </g>
                            <g id="Package-small" fill="none" transform="translate(31.000000, 212.000000)">
                                <path d="M0,14.0032996 C0,13.4491925 0.392690301,12.795801 0.889763236,12.5373231 L24.1102368,0.462676883 C24.6016394,0.207147496 25.3926903,0.204198956 25.8897632,0.462676883 L49.1102368,12.5373231 C49.6016394,12.7928525 50,13.4512787 50,14.0032996 L50,37.9967004 C50,38.5508075 49.6073097,39.204199 49.1102368,39.4626769 L25.8897632,51.5373231 C25.3983606,51.7928525 24.6073097,51.795801 24.1102368,51.5373231 L0.889763236,39.4626769 C0.39836057,39.2071475 0,38.5487213 0,37.9967004 L0,14.0032996 Z" id="Path-2" fill="#8DECD9" fill-rule="evenodd"></path>
                                <path d="M2,16.2942404 L2,37.7857596 L11,42.4657596 L11,20.9742404 L2,16.2942404 Z M4.3349734,12.9999457 L13.3530002,17.6893197 L22.8589713,12.7462147 L14.03678,7.95105691 C10.3829682,9.85381442 6.65430085,11.7936167 4.3349734,12.9999457 Z M16.1753771,6.8371183 L24.9993249,11.6332308 L34.0179224,6.94356011 L24.9670578,2.23711049 C24.9847625,2.24304914 20.9025074,4.37428592 16.1753771,6.8371183 Z M36.1854613,8.07068034 L27.118901,12.7852917 L36.3886023,17.8236863 L45.6649222,13 L36.1854613,8.07068034 Z M48,16.2942404 L39,20.9742404 L39,20.9742404 L39,42.4679095 C43.8045888,39.9670723 48,37.7857596 48,37.7857596 L48,16.2942404 Z M37,43.5090799 L37,22.0142404 L27,27.2142404 L27,48.7239879 C29.2651425,47.5382387 33.1685243,45.5039961 37,43.5090799 Z M23,48.7057596 L23,27.2142404 L13,22.0142404 L13,43.5057596 L23,48.7057596 Z M-2,14.0032996 C-2,12.7019826 -1.19103624,11.3650984 -0.0329422372,10.7628895 L23.1875313,-1.31175672 C24.2585185,-1.86867007 25.7382175,-1.87036734 26.8124687,-1.31175672 L50.0329422,10.7628895 C51.1860661,11.3625139 52,12.704872 52,14.0032996 L52,37.9967004 C52,39.2980174 51.1910362,40.6349016 50.0329422,41.2371105 L26.8124687,53.3117567 C25.7414815,53.8686701 24.2617825,53.8703673 23.1875313,53.3117567 L-0.0329422372,41.2371105 C-1.18606607,40.6374861 -2,39.295128 -2,37.9967004 L-2,14.0032996 Z M34.2482487,18.9366702 L24.9785473,13.8982756 L15.5205391,18.8164399 L25,23.7457596 L34.2482487,18.9366702 L34.2482487,18.9366702 Z" id="Combined-Shape" fill="#41A38E" fill-rule="nonzero"></path>
                            </g>
                            <g id="Group-8-Copy-3" stroke-width="1" fill="none" fill-rule="evenodd" transform="translate(163.000000, 249.000000)">
                                <path d="M0,21.1131805 C0,20.2899785 0.589035451,19.3144167 1.33464485,18.9242613 L36.1653551,0.6983802 C36.9024591,0.312675466 38.0890355,0.30822484 38.8346449,0.6983802 L73.6653551,18.9242613 C74.4024591,19.309966 75,20.3038169 75,21.1131805 L75,57.3773856 C75,58.2005875 74.4109645,59.1761494 73.6653551,59.5663047 L38.8346449,77.7921858 C38.0975409,78.1778906 36.9109645,78.1823412 36.1653551,77.7921858 L1.33464485,59.5663047 C0.597540855,59.1806 0,58.1867492 0,57.3773856 L0,21.1131805 Z" id="Path-2" stroke="#41A38E" stroke-width="6" fill="#8DECD9"></path>
                                <polyline id="Path-2-Copy" stroke="#41A38E" stroke-width="6" points="75 19.6226415 37.5 39.245283 0 19.6226415"></polyline>
                                <path d="M57,9.05660377 L19.5,28.6792453" id="Path-2-Copy-4" stroke="#41A38E" stroke-width="3"></path>
                                <path d="M37.5,39.245283 L37.5,78.490566" id="Path-3" stroke="#41A38E" stroke-width="5"></path>
                                <path d="M18.5078125,30 L18.5078125,70" id="Path-3-Copy-2" stroke="#41A38E" stroke-width="3"></path>
                                <path d="M57.5,28.6792453 L57.5,67.9245283" id="Path-3-Copy-3" stroke="#41A38E" stroke-width="3"></path>
                                <path d="M18.1820167,8.71212712 L55.3179833,29.0237219" id="Path-2-Copy-5" stroke="#41A38E" stroke-width="3" fill="#54D2B6"></path>
                            </g>
                            <g id="Group-8-Copy-4" stroke-width="1" fill="none" fill-rule="evenodd" transform="translate(0.000000, 265.000000)">
                                <path d="M0,21.1131805 C0,20.2899785 0.589035451,19.3144167 1.33464485,18.9242613 L36.1653551,0.6983802 C36.9024591,0.312675466 38.0890355,0.30822484 38.8346449,0.6983802 L73.6653551,18.9242613 C74.4024591,19.309966 75,20.3038169 75,21.1131805 L75,57.3773856 C75,58.2005875 74.4109645,59.1761494 73.6653551,59.5663047 L38.8346449,77.7921858 C38.0975409,78.1778906 36.9109645,78.1823412 36.1653551,77.7921858 L1.33464485,59.5663047 C0.597540855,59.1806 0,58.1867492 0,57.3773856 L0,21.1131805 Z" id="Path-2" stroke="#41A38E" stroke-width="6" fill="#8DECD9"></path>
                                <polyline id="Path-2-Copy" stroke="#41A38E" stroke-width="6" points="75 19.6226415 37.5 39.245283 0 19.6226415"></polyline>
                                <path d="M57,9.05660377 L19.5,28.6792453" id="Path-2-Copy-4" stroke="#41A38E" stroke-width="3"></path>
                                <path d="M37.5,39.245283 L37.5,78.490566" id="Path-3" stroke="#41A38E" stroke-width="5"></path>
                                <path d="M18.5078125,30 L18.5078125,70" id="Path-3-Copy-2" stroke="#41A38E" stroke-width="3"></path>
                                <path d="M57.5,28.6792453 L57.5,67.9245283" id="Path-3-Copy-3" stroke="#41A38E" stroke-width="3"></path>
                                <path d="M18.1820167,8.71212712 L55.3179833,29.0237219" id="Path-2-Copy-5" stroke="#41A38E" stroke-width="3" fill="#54D2B6"></path>
                            </g>
                        </g>
                    </g>
                    <g id="Logo-White" mask="url(#mask-2)" stroke-width="1" fill-rule="evenodd">
                        <g transform="translate(36.000000, 32.000000)" id="-g-Logo-Copy-2">
                            <g>
                                <g id="Package-small-Copy-7" transform="translate(3.000000, 0.000000)">
                                    <path d="M2,16.0032996 C2,15.4491925 2.3926903,14.795801 2.88976324,14.5373231 L26.1102368,2.46267688 C26.6016394,2.2071475 27.3926903,2.20419896 27.8897632,2.46267688 L51.1102368,14.5373231 C51.6016394,14.7928525 52,15.4512787 52,16.0032996 L52,39.9967004 C52,40.5508075 51.6073097,41.204199 51.1102368,41.4626769 L27.8897632,53.5373231 C27.3983606,53.7928525 26.6073097,53.795801 26.1102368,53.5373231 L2.88976324,41.4626769 C2.39836057,41.2071475 2,40.5487213 2,39.9967004 L2,16.0032996 Z" id="Path-2"></path>
                                    <path d="M4,18.2942404 L4,39.7857596 L13,44.4657596 L13,22.9742404 L4,18.2942404 Z M6.3349734,14.9999457 L15.3530002,19.6893197 L24.8589713,14.7462147 L16.03678,9.95105691 C12.3829682,11.8538144 8.65430085,13.7936167 6.3349734,14.9999457 Z M18.1753771,8.8371183 L26.9993249,13.6332308 L36.0179224,8.94356011 L26.9670578,4.23711049 C26.9847625,4.24304914 22.9025074,6.37428592 18.1753771,8.8371183 Z M38.1854613,10.0706803 L29.118901,14.7852917 L38.3886023,19.8236863 L47.6649222,15 L38.1854613,10.0706803 Z M50,18.2942404 L41,22.9742404 L41,22.9742404 L41,44.4679095 C45.8045888,41.9670723 50,39.7857596 50,39.7857596 L50,18.2942404 Z M39,45.5090799 L39,24.0142404 L29,29.2142404 L29,50.7239879 C31.2651425,49.5382387 35.1685243,47.5039961 39,45.5090799 Z M25,50.7057596 L25,29.2142404 L15,24.0142404 L15,45.5057596 L25,50.7057596 Z M0,16.0032996 C0,14.7019826 0.808963759,13.3650984 1.96705776,12.7628895 L25.1875313,0.68824328 C26.2585185,0.131329926 27.7382175,0.12963266 28.8124687,0.68824328 L52.0329422,12.7628895 C53.1860661,13.3625139 54,14.704872 54,16.0032996 L54,39.9967004 C54,41.2980174 53.1910362,42.6349016 52.0329422,43.2371105 L28.8124687,55.3117567 C27.7414815,55.8686701 26.2617825,55.8703673 25.1875313,55.3117567 L1.96705776,43.2371105 C0.813933928,42.6374861 0,41.295128 0,39.9967004 L0,16.0032996 Z M36.2482487,20.9366702 L26.9785473,15.8982756 L17.5205391,20.8164399 L27,25.7457596 L36.2482487,20.9366702 L36.2482487,20.9366702 Z" id="Combined-Shape" fill="#FFFFFF" fill-rule="nonzero"></path>
                                </g>
                                <g id="Name" transform="translate(0.000000, 64.000000)" fill="#FFFFFF">
                                    <path d="M11.0473896,4 L11.0473896,13 L13,13 L13,7.0599776e-14 L11.0473896,7.0599776e-14 L6.5,6.5 L1.98795181,5.68434189e-14 L0,7.0599776e-14 L0,13 L1.95261044,13 L2,4 L5.75,9 L7.25789826,9 L11.0473896,4 Z M16,13 L18,13 L18,0 L16,0 L16,13 Z M23,13 L23,2 L20,2 L20,0 L28,0 L28,2 L25,2 L25,13 L23,13 Z M32,13 L32,2 L29,2 L29,0 L37,0 L37,2 L34,2 L34,13 L32,13 Z" id="MITTO"></path>
                                    <path d="M44.5,13 C40.9101491,13 38,10.0898509 38,6.5 C38,2.91014913 40.9101491,0 44.5,0 C48.0898509,0 51,2.91014913 51,6.5 C51,10.0898509 48.0898509,13 44.5,13 Z M44.5,11 C46.9852814,11 49,8.98528137 49,6.5 C49,4.01471863 46.9852814,2 44.5,2 C42.0147186,2 40,4.01471863 40,6.5 C40,8.98528137 42.0147186,11 44.5,11 Z" id="Oval"></path>
                                    <polygon id="+" points="63 8 63 6 59 6 59 2 57 2 57 6 53 6 53 8 57 8 57 12 59 12 59 8"></polygon>
                                </g>
                            </g>
                        </g>
                    </g>
                </g>
            </g>
        </g>
    </g>
</svg>