<?xml version="1.0" encoding="UTF-8"?>
<svg width="23px" height="19px" viewBox="0 0 23 19" version="1.1" xmlns="http://www.w3.org/2000/svg" xmlns:xlink="http://www.w3.org/1999/xlink">
    <!-- Generator: sketchtool 44.1 (41455) - http://www.bohemiancoding.com/sketch -->
    <title>CC8DFAEB-521F-4820-88BE-FC019B873F33</title>
    <desc>Created with sketchtool.</desc>
    <defs>
        <path d="M10.3339742,14 L10.5252609,14.8289091 C10.6681515,15.4481017 11.3656062,16 12.0085302,16 L22,16 C22.5522847,16 23,16.4477153 23,17 C23,17.5522847 22.5522847,18 22,18 L12.0085302,18 C10.436429,18 8.92926677,16.8073774 8.57647849,15.2786282 L6.25109639,5.2019724 C6.23051213,5.11277391 6.08878873,5 6.00104344,5 L4,5 C3.44771525,5 3,4.55228475 3,4 C3,3.44771525 3.44771525,3 4,3 L6.00104344,3 C7.02021237,3 7.96990527,3.75570149 8.19987879,4.75225338 L9.8724357,12 L21,12 L21,8 L9,8 L8.5,6 L22.0033563,6 C22.5501437,6 23,6.4463856 23,6.99703014 L23,13.0029699 C23,13.5469637 22.5555588,14 22.0073128,14 L10.3339742,14 Z M11,22 C9.8954305,22 9,21.1045695 9,20 C9,18.8954305 9.8954305,18 11,18 C12.1045695,18 13,18.8954305 13,20 C13,21.1045695 12.1045695,22 11,22 Z M21,22 C19.8954305,22 19,21.1045695 19,20 C19,18.8954305 19.8954305,18 21,18 C22.1045695,18 23,18.8954305 23,20 C23,21.1045695 22.1045695,22 21,22 Z M0.5,16 C0.223857625,16 0,15.7761424 0,15.5 C0,15.2238576 0.223857625,15 0.5,15 L7.5,15 C7.77614237,15 8,15.2238576 8,15.5 C8,15.7761424 7.77614237,16 7.5,16 L0.5,16 Z M3.5,14 C3.22385763,14 3,13.7761424 3,13.5 C3,13.2238576 3.22385763,13 3.5,13 L7,13 C7.27614237,13 7.5,13.2238576 7.5,13.5 C7.5,13.7761424 7.27614237,14 7,14 L3.5,14 Z M4.5,12 C4.22385763,12 4,11.7761424 4,11.5 C4,11.2238576 4.22385763,11 4.5,11 L6.5,11 C6.77614237,11 7,11.2238576 7,11.5 C7,11.7761424 6.77614237,12 6.5,12 L4.5,12 Z M1.5,10 C1.22385763,10 1,9.77614237 1,9.5 C1,9.22385763 1.22385763,9 1.5,9 L6,9 C6.27614237,9 6.5,9.22385763 6.5,9.5 C6.5,9.77614237 6.27614237,10 6,10 L1.5,10 Z" id="path-1"></path>
    </defs>
    <g id="Components" stroke="none" stroke-width="1" fill="none" fill-rule="evenodd">
        <g id="Menu-Icons" transform="translate(-72.000000, -87.000000)">
            <g id="-g-Icon-/-Cart-Copy-14" transform="translate(72.000000, 84.000000)">
                <rect id="Rectangle-7" fill-opacity="0" fill="#000000" transform="translate(12.000000, 12.000000) scale(-1, 1) translate(-12.000000, -12.000000) " x="0" y="0" width="24" height="24"></rect>
                <mask id="mask-2" fill="white">
                    <use xlink:href="#path-1"></use>
                </mask>
                <use id="Combined-Shape" fill="#FFFFFF" fill-rule="nonzero" xlink:href="#path-1"></use>
                <g id="Icon-State-/-Dark-50%" mask="url(#mask-2)" fill="#000000" fill-opacity="0.5" opacity="0.5">
                    <rect id="Rectangle-13" x="0" y="0" width="24" height="24"></rect>
                </g>
            </g>
        </g>
    </g>
</svg>