<?xml version="1.0" encoding="UTF-8"?>
<svg width="32px" height="32px" viewBox="0 0 32 32" version="1.1" xmlns="http://www.w3.org/2000/svg" xmlns:xlink="http://www.w3.org/1999/xlink">
    <!-- Generator: sketchtool 46.2 (44496) - http://www.bohemiancoding.com/sketch -->
    <title>2496595B-809A-4846-94DA-BAADDFECB6B9</title>
    <desc>Created with sketchtool.</desc>
    <defs></defs>
    <g id="Components" stroke="none" stroke-width="1" fill="none" fill-rule="evenodd">
        <g id="Favicon" transform="translate(-34.000000, -8.000000)">
            <g id="Package-small-Copy-8" transform="translate(35.000000, 8.000000)">
                <polygon id="Line" fill="#DE5628" fill-rule="nonzero" points="7 12.5 7 27.5 8 27.5 8 12.5"></polygon>
                <polygon id="Line-Copy" fill="#DE5628" fill-rule="nonzero" points="22 12.5 22 27.5 23 27.5 23 12.5"></polygon>
                <path d="M1.41303452,8.40994268 L14.7304948,1.2870039 L14.7304948,1.2870039 C14.8988789,1.19694248 15.1011211,1.19694248 15.2695052,1.2870039 L28.5869655,8.40994268 L28.5869655,8.40994268 C28.7728409,8.50935948 28.8888889,8.70303292 28.8888889,8.91382519 L28.8888889,23.0861748 L28.8888889,23.0861748 C28.8888889,23.2969671 28.7728409,23.4906405 28.5869655,23.5900573 L15.2695052,30.7129961 L15.2695052,30.7129961 C15.1011211,30.8030575 14.8988789,30.8030575 14.7304948,30.7129961 L1.41303452,23.5900573 L1.41303452,23.5900573 C1.22715909,23.4906405 1.11111111,23.2969671 1.11111111,23.0861748 L1.11111111,8.91382519 L1.11111111,8.91382519 C1.11111111,8.70303292 1.22715909,8.50935948 1.41303452,8.40994268 Z" id="Path-2"></path>
                <path d="M2,10.3287796 L2,22.6600037 L14,29.0376011 L14,16.6938517 L2,10.3287796 Z M3.42044424,8.51845449 L8.52944456,11.2510398 L13.8105396,8.42640841 L8.85795419,5.65760027 C6.82742709,6.72664519 4.74884201,7.81992035 3.42044424,8.51845449 Z M10.0560825,5.02666502 L14.999625,7.79041761 L20.0532425,5.08745417 L14.9816988,2.42120599 C14.9914808,2.42458091 12.7093071,3.62913934 10.0560825,5.02666502 Z M21.267797,5.72597843 L16.1771672,8.44873813 L21.3270013,11.3278208 L26.5794995,8.51848459 L21.267797,5.72597843 Z M28,10.3287796 L16,16.6938517 L16,29.0541045 C19.0249283,27.4524237 28,22.7347197 28,22.7347197 L28,10.3287796 Z M0,9.14474265 C0,8.40113294 0.449424311,7.63719908 1.09280987,7.29307972 L13.9930729,0.393281874 C14.5880658,0.0750456717 15.4101208,0.0740758059 16.0069271,0.393281874 L28.9071901,7.29307972 C29.5478145,7.63572223 30,8.40278401 30,9.14474265 L30,22.8552574 C30,23.5988671 29.5505757,24.3628009 28.9071901,24.7069203 L16.0069271,31.6067181 C15.4119342,31.9249543 14.5898792,31.9259242 13.9930729,31.6067181 L1.09280987,24.7069203 C0.452185516,24.3642778 0,23.597216 0,22.8552574 L0,9.14474265 Z M14.9880818,9.08472893 L9.73363284,11.8951085 L15,14.7118626 L20.1379159,11.9638116 L14.9880818,9.08472893 Z" id="Combined-Shape" fill="#DE5628" fill-rule="nonzero"></path>
            </g>
        </g>
    </g>
</svg>