<?xml version="1.0" encoding="UTF-8"?>
<svg width="33px" height="26px" viewBox="0 0 33 26" version="1.1" xmlns="http://www.w3.org/2000/svg" xmlns:xlink="http://www.w3.org/1999/xlink">
    <!-- Generator: sketchtool 46.2 (44496) - http://www.bohemiancoding.com/sketch -->
    <title>8904A3B1-2046-4991-9EE2-7CD9FC61F6B1</title>
    <desc>Created with sketchtool.</desc>
    <defs></defs>
    <g id="Sending" stroke="none" stroke-width="1" fill="none" fill-rule="evenodd">
        <g id="Send-#1" transform="translate(-107.000000, -180.000000)">
            <g id="-g-Icon-Multiple" transform="translate(105.000000, 175.000000)">
                <rect id="Rectangle-6" x="0" y="0" width="36" height="36"></rect>
                <g id="Group-8-Copy-2" transform="translate(12.000000, 6.000000)" stroke="#4C4D4C">
                    <path d="M0,3.67839533 C0,3.54339868 0.0918860435,3.38541869 0.216266632,3.31970819 L6.28373337,0.11425407 C6.40317413,0.0511532894 6.59188604,0.0485435702 6.71626663,0.11425407 L12.7837334,3.31970819 C12.9031741,3.38280897 13,3.55316795 13,3.67839533 L13,10.0574537 C13,10.1924504 12.908114,10.3504304 12.7837334,10.4161409 L6.71626663,13.621595 C6.59682587,13.6846958 6.40811396,13.6873055 6.28373337,13.621595 L0.216266632,10.4161409 C0.0968258693,10.3530401 0,10.1826811 0,10.0574537 L0,3.67839533 Z" id="Path-2" fill="#D1D1D1"></path>
                    <polyline id="Path-2-Copy" points="13 3.43396226 6.5 6.86792453 0 3.43396226"></polyline>
                    <path d="M6.5,6.86792453 L6.5,13.7358491" id="Path-3"></path>
                </g>
                <g id="Group-8-Copy-3" transform="translate(21.000000, 11.000000)" stroke="#4C4D4C">
                    <path d="M0,3.67839533 C0,3.54339868 0.0918860435,3.38541869 0.216266632,3.31970819 L6.28373337,0.11425407 C6.40317413,0.0511532894 6.59188604,0.0485435702 6.71626663,0.11425407 L12.7837334,3.31970819 C12.9031741,3.38280897 13,3.55316795 13,3.67839533 L13,10.0574537 C13,10.1924504 12.908114,10.3504304 12.7837334,10.4161409 L6.71626663,13.621595 C6.59682587,13.6846958 6.40811396,13.6873055 6.28373337,13.621595 L0.216266632,10.4161409 C0.0968258693,10.3530401 0,10.1826811 0,10.0574537 L0,3.67839533 Z" id="Path-2" fill="#D1D1D1"></path>
                    <polyline id="Path-2-Copy" points="13 3.43396226 6.5 6.86792453 0 3.43396226"></polyline>
                    <path d="M6.5,6.86792453 L6.5,13.7358491" id="Path-3"></path>
                </g>
                <g id="Group-8-Copy" transform="translate(3.000000, 11.000000)" stroke="#4C4D4C">
                    <path d="M0,3.67839533 C0,3.54339868 0.0918860435,3.38541869 0.216266632,3.31970819 L6.28373337,0.11425407 C6.40317413,0.0511532894 6.59188604,0.0485435702 6.71626663,0.11425407 L12.7837334,3.31970819 C12.9031741,3.38280897 13,3.55316795 13,3.67839533 L13,10.0574537 C13,10.1924504 12.908114,10.3504304 12.7837334,10.4161409 L6.71626663,13.621595 C6.59682587,13.6846958 6.40811396,13.6873055 6.28373337,13.621595 L0.216266632,10.4161409 C0.0968258693,10.3530401 0,10.1826811 0,10.0574537 L0,3.67839533 Z" id="Path-2" fill="#D1D1D1"></path>
                    <polyline id="Path-2-Copy" points="13 3.43396226 6.5 6.86792453 0 3.43396226"></polyline>
                    <path d="M6.5,6.86792453 L6.5,13.7358491" id="Path-3"></path>
                </g>
                <g id="Group-8-Copy-4" transform="translate(12.000000, 16.000000)" stroke="#4C4D4C">
                    <path d="M0,3.67839533 C0,3.54339868 0.0918860435,3.38541869 0.216266632,3.31970819 L6.28373337,0.11425407 C6.40317413,0.0511532894 6.59188604,0.0485435702 6.71626663,0.11425407 L12.7837334,3.31970819 C12.9031741,3.38280897 13,3.55316795 13,3.67839533 L13,10.0574537 C13,10.1924504 12.908114,10.3504304 12.7837334,10.4161409 L6.71626663,13.621595 C6.59682587,13.6846958 6.40811396,13.6873055 6.28373337,13.621595 L0.216266632,10.4161409 C0.0968258693,10.3530401 0,10.1826811 0,10.0574537 L0,3.67839533 Z" id="Path-2" fill="#D1D1D1"></path>
                    <polyline id="Path-2-Copy" points="13 3.43396226 6.5 6.86792453 0 3.43396226"></polyline>
                    <path d="M6.5,6.86792453 L6.5,13.7358491" id="Path-3"></path>
                </g>
            </g>
        </g>
    </g>
</svg>