<?xml version="1.0" encoding="UTF-8"?>
<svg width="27px" height="28px" viewBox="0 0 27 28" version="1.1" xmlns="http://www.w3.org/2000/svg" xmlns:xlink="http://www.w3.org/1999/xlink">
    <!-- Generator: sketchtool 46.2 (44496) - http://www.bohemiancoding.com/sketch -->
    <title>94EAF675-60AA-4BE3-B079-20C772E40BF9</title>
    <desc>Created with sketchtool.</desc>
    <defs></defs>
    <g id="Sending" stroke="none" stroke-width="1" fill="none" fill-rule="evenodd">
        <g id="Send-#1" transform="translate(-110.000000, -131.000000)">
            <g id="-g-Icon-Single" transform="translate(105.000000, 127.000000)">
                <rect id="Rectangle-6" x="0" y="0" width="36" height="36"></rect>
                <g id="Group-14" transform="translate(6.000000, 5.000000)" stroke="#4C4D4C" stroke-width="2">
                    <path d="M0,6.9307321 C0,6.65518584 0.19634515,6.3286409 0.444881618,6.19804614 L12.0551184,0.097388213 C12.3008197,-0.0317168016 12.6963452,-0.0332065374 12.9448816,0.097388213 L24.5551184,6.19804614 C24.8008197,6.32715116 25,6.65981788 25,6.9307321 L25,19.0692679 C25,19.3448142 24.8036548,19.6713591 24.5551184,19.8019539 L12.9448816,25.9026118 C12.6991803,26.0317168 12.3036548,26.0332065 12.0551184,25.9026118 L0.444881618,19.8019539 C0.199180285,19.6728488 0,19.3401821 0,19.0692679 L0,6.9307321 Z" id="Path-2" fill="#D1D1D1"></path>
                    <polyline id="Path-2-Copy" points="25 7 12.5 14 0 7"></polyline>
                    <path d="M13,13 L13,26" id="Path-3"></path>
                </g>
            </g>
        </g>
    </g>
</svg>