<?xml version="1.0" encoding="UTF-8"?>
<svg width="64px" height="64px" viewBox="0 0 64 64" version="1.1" xmlns="http://www.w3.org/2000/svg" xmlns:xlink="http://www.w3.org/1999/xlink">
    <!-- Generator: sketchtool 46.2 (44496) - http://www.bohemiancoding.com/sketch -->
    <title>2DE3611D-B34F-4D79-9F19-8F92BAD14E54</title>
    <desc>Created with sketchtool.</desc>
    <defs></defs>
    <g id="Symbols" stroke="none" stroke-width="1" fill="none" fill-rule="evenodd">
        <g id="Icon-/-Letter-/-Normal">
            <rect id="Rectangle" fill-opacity="0" fill="#FFFFFF" x="0" y="0" width="64" height="64"></rect>
            <g id="Group-6" transform="translate(2.000000, 16.000000)" stroke="#14332B">
                <path d="M3.55271368e-15,23 L35,3.55271368e-15 C35,3.55271368e-15 40.3664987,1.55057931 47,5 C53.6335013,8.44942069 60,13 60,13 L60,16 L25,39 C25,39 17.649192,36.6975798 11.5,33.5 C5.35080804,30.3024202 3.55271368e-15,26 3.55271368e-15,26 L3.55271368e-15,23 Z" id="Path-2" stroke-width="4" fill="#54D2B6"></path>
                <path d="M24.5,38.5 L26.7229043,30.8292939 C26.87594,30.3012045 26.6044922,29.6537671 26.1169798,29.3834079 L11.8830202,21.4896956 C11.3953416,21.2192442 10.5830439,21.1667824 10.0771484,21.3691406 L1,25" id="Path-2-Copy-4" stroke-width="2"></path>
            </g>
        </g>
    </g>
</svg>