<?xml version="1.0" encoding="UTF-8"?>
<svg width="24px" height="20px" viewBox="0 0 24 20" version="1.1" xmlns="http://www.w3.org/2000/svg" xmlns:xlink="http://www.w3.org/1999/xlink">
    <!-- Generator: sketchtool 44.1 (41455) - http://www.bohemiancoding.com/sketch -->
    <title>67B1DA51-C126-482D-ABB1-B94FFDD0A2D4</title>
    <desc>Created with sketchtool.</desc>
    <defs>
        <path d="M14,13 L14,11 L20.1715729,11 L17.8786797,8.70710678 L19.2928932,7.29289322 L24,12 L19.2928932,16.7071068 L17.8786797,15.2928932 L20.1715729,13 L14,13 Z M10.8932773,22 C5.37042982,22 0.893277319,17.5228475 0.893277319,12 C0.893277319,6.4771525 5.37042982,2 10.8932773,2 C13.6728826,2 16.1876104,3.13407572 18,4.96476662 L16.5787,6.37185803 C15.0844695,4.86253903 13.0597816,4 10.8932773,4 C6.47499932,4 2.89327732,7.581722 2.89327732,12 C2.89327732,16.418278 6.47499932,20 10.8932773,20 C13.0363355,20 15.04086,19.156191 16.5311545,17.6757684 L17.9406607,19.0946736 C16.1329191,20.8904405 13.642674,22 10.8932773,22 Z" id="path-1"></path>
    </defs>
    <g id="Components" stroke="none" stroke-width="1" fill="none" fill-rule="evenodd">
        <g id="Menu-Icons" transform="translate(-216.000000, -50.000000)">
            <g id="-g-Icon-/-Cart-Copy-5" transform="translate(216.000000, 48.000000)">
                <rect id="Rectangle-7" fill-opacity="0" fill="#000000" transform="translate(12.000000, 12.000000) scale(-1, 1) translate(-12.000000, -12.000000) " x="0" y="0" width="24" height="24"></rect>
                <mask id="mask-2" fill="white">
                    <use xlink:href="#path-1"></use>
                </mask>
                <use id="Line" fill="#FFFFFF" fill-rule="nonzero" xlink:href="#path-1"></use>
                <g id="Icon-State-/-White" mask="url(#mask-2)" fill="#FFFFFF">
                    <rect id="Rectangle-13" x="0" y="0" width="24" height="24"></rect>
                </g>
            </g>
        </g>
    </g>
</svg>