<?xml version="1.0" encoding="UTF-8"?>
<svg width="63px" height="77px" viewBox="0 0 63 77" version="1.1" xmlns="http://www.w3.org/2000/svg" xmlns:xlink="http://www.w3.org/1999/xlink">
    <!-- Generator: sketchtool 44.1 (41455) - http://www.bohemiancoding.com/sketch -->
    <title>B39ED45D-0685-4B74-BE02-4BC51AAA5EE8</title>
    <desc>Created with sketchtool.</desc>
    <defs></defs>
    <g id="Symbols" stroke="none" stroke-width="1" fill="none" fill-rule="evenodd">
        <g id="Logo-Orange-on-Dark">
            <g id="-g-Logo-Copy">
                <g id="Package-small-Copy-7" transform="translate(3.000000, 0.000000)">
                    <path d="M2,16.0032996 C2,15.4491925 2.3926903,14.795801 2.88976324,14.5373231 L26.1102368,2.46267688 C26.6016394,2.2071475 27.3926903,2.20419896 27.8897632,2.46267688 L51.1102368,14.5373231 C51.6016394,14.7928525 52,15.4512787 52,16.0032996 L52,39.9967004 C52,40.5508075 51.6073097,41.204199 51.1102368,41.4626769 L27.8897632,53.5373231 C27.3983606,53.7928525 26.6073097,53.795801 26.1102368,53.5373231 L2.88976324,41.4626769 C2.39836057,41.2071475 2,40.5487213 2,39.9967004 L2,16.0032996 Z" id="Path-2"></path>
                    <path d="M4,18.2942404 L4,39.7857596 L13,44.4657596 L13,22.9742404 L4,18.2942404 Z M6.3349734,14.9999457 L15.3530002,19.6893197 L24.8589713,14.7462147 L16.03678,9.95105691 C12.3829682,11.8538144 8.65430085,13.7936167 6.3349734,14.9999457 Z M18.1753771,8.8371183 L26.9993249,13.6332308 L36.0179224,8.94356011 L26.9670578,4.23711049 C26.9847625,4.24304914 22.9025074,6.37428592 18.1753771,8.8371183 Z M38.1854613,10.0706803 L29.118901,14.7852917 L38.3886023,19.8236863 L47.6649222,15 L38.1854613,10.0706803 Z M50,18.2942404 L41,22.9742404 L41,22.9742404 L41,44.4679095 C45.8045888,41.9670723 50,39.7857596 50,39.7857596 L50,18.2942404 Z M39,45.5090799 L39,24.0142404 L29,29.2142404 L29,50.7239879 C31.2651425,49.5382387 35.1685243,47.5039961 39,45.5090799 Z M25,50.7057596 L25,29.2142404 L15,24.0142404 L15,45.5057596 L25,50.7057596 Z M0,16.0032996 C0,14.7019826 0.808963759,13.3650984 1.96705776,12.7628895 L25.1875313,0.68824328 C26.2585185,0.131329926 27.7382175,0.12963266 28.8124687,0.68824328 L52.0329422,12.7628895 C53.1860661,13.3625139 54,14.704872 54,16.0032996 L54,39.9967004 C54,41.2980174 53.1910362,42.6349016 52.0329422,43.2371105 L28.8124687,55.3117567 C27.7414815,55.8686701 26.2617825,55.8703673 25.1875313,55.3117567 L1.96705776,43.2371105 C0.813933928,42.6374861 0,41.295128 0,39.9967004 L0,16.0032996 Z M36.2482487,20.9366702 L26.9785473,15.8982756 L17.5205391,20.8164399 L27,25.7457596 L36.2482487,20.9366702 L36.2482487,20.9366702 Z" id="Combined-Shape" fill="#DE5628" fill-rule="nonzero"></path>
                </g>
                <g id="Name" transform="translate(0.000000, 64.000000)" fill="#FFFFFF">
                    <path d="M11.0473896,4 L11.0473896,13 L13,13 L13,7.0599776e-14 L11.0473896,7.0599776e-14 L6.5,6.5 L1.98795181,5.68434189e-14 L0,7.0599776e-14 L0,13 L1.95261044,13 L2,4 L5.75,9 L7.25789826,9 L11.0473896,4 Z M16,13 L18,13 L18,0 L16,0 L16,13 Z M23,13 L23,2 L20,2 L20,0 L28,0 L28,2 L25,2 L25,13 L23,13 Z M32,13 L32,2 L29,2 L29,0 L37,0 L37,2 L34,2 L34,13 L32,13 Z" id="MITTO"></path>
                    <path d="M44.5,13 C40.9101491,13 38,10.0898509 38,6.5 C38,2.91014913 40.9101491,0 44.5,0 C48.0898509,0 51,2.91014913 51,6.5 C51,10.0898509 48.0898509,13 44.5,13 Z M44.5,11 C46.9852814,11 49,8.98528137 49,6.5 C49,4.01471863 46.9852814,2 44.5,2 C42.0147186,2 40,4.01471863 40,6.5 C40,8.98528137 42.0147186,11 44.5,11 Z" id="Oval"></path>
                    <polygon id="+" points="63 8 63 6 59 6 59 2 57 2 57 6 53 6 53 8 57 8 57 12 59 12 59 8"></polygon>
                </g>
            </g>
        </g>
    </g>
</svg>