<?xml version="1.0" encoding="UTF-8"?>
<svg width="64px" height="64px" viewBox="0 0 64 64" version="1.1" xmlns="http://www.w3.org/2000/svg" xmlns:xlink="http://www.w3.org/1999/xlink">
    <!-- Generator: sketchtool 46.2 (44496) - http://www.bohemiancoding.com/sketch -->
    <title>B304FF5D-9FBB-4826-A860-D6172D32A1F5</title>
    <desc>Created with sketchtool.</desc>
    <defs></defs>
    <g id="Symbols" stroke="none" stroke-width="1" fill="none" fill-rule="evenodd">
        <g id="Icon-/-Palette-/-Normal">
            <rect id="Rectangle" fill-opacity="0" fill="#FFFFFF" x="0" y="0" width="64" height="64"></rect>
            <g id="Group-7" transform="translate(7.000000, 16.000000)">
                <polygon id="Path-2-Copy-3" stroke="#15362F" stroke-width="4" fill="#54D2B6" points="0 29 0 20 25 7 50 20 50 29 25 42"></polygon>
                <path d="M16,38 L16,29" id="Path-2-Copy-6" stroke="#15362F" stroke-width="2"></path>
                <path d="M9,34 L9,25" id="Path-2-Copy-7" stroke="#15362F" stroke-width="2"></path>
                <polyline id="Path-2-Copy-2" stroke="#15362F" stroke-width="4" points="50 20 25 33 0 20"></polyline>
                <path d="M25,32.5 L25,42" id="Path-3-Copy" stroke="#15362F" stroke-width="4"></path>
                <g id="Group-8-Copy" transform="translate(13.000000, 0.000000)" stroke="#14332B" stroke-width="2">
                    <path d="M0,7.49850233 C0,6.94704472 0.401739962,6.29109522 0.878975727,6.04293262 L11.6210243,0.457067378 C12.1064692,0.204636035 12.90174,0.20890478 13.3789757,0.457067378 L24.1210243,6.04293262 C24.6064692,6.29536396 25,6.94748943 25,7.49850233 L25,18.5014977 C25,19.0529553 24.59826,19.7089048 24.1210243,19.9570674 L13.3789757,25.5429326 C12.8935308,25.795364 12.09826,25.7910952 11.6210243,25.5429326 L0.878975727,19.9570674 C0.393530837,19.704636 0,19.0525106 0,18.5014977 L0,7.49850233 Z" id="Path-2" fill="#8DECD9"></path>
                    <polyline id="Path-2-Copy" points="25 6.5 12.5 13 0 6.5"></polyline>
                    <path d="M13,13 L13,26" id="Path-3"></path>
                </g>
            </g>
        </g>
    </g>
</svg>