<?xml version="1.0" encoding="UTF-8"?>
<svg width="24px" height="24px" viewBox="0 0 24 24" version="1.1" xmlns="http://www.w3.org/2000/svg" xmlns:xlink="http://www.w3.org/1999/xlink">
    <!-- Generator: sketchtool 46.2 (44496) - http://www.bohemiancoding.com/sketch -->
    <title>0F807A6C-28E9-49CF-8CA2-E0EFAAE9F57A</title>
    <desc>Created with sketchtool.</desc>
    <defs>
        <path d="M6.97512572,4.56258985 L7.75299882,6.62751618 L7.16555014,7.48696004 C6.73441056,8.11772196 6.41513461,8.61907499 6.21273205,8.97943002 C6.03973345,9.28743459 5.93709452,9.50629637 5.90938241,9.59519646 L5.47147427,11 L3,11 L3,12.5220551 L4.95112863,13.0717327 L5.34383317,13.8775535 L5.53374598,14.2672502 C6.00900621,15.2423523 7.27104124,16.7500286 8.14489735,17.3601189 L9,17.9571163 L9,20 L9.76393202,20 L10.7773446,17.9731749 L12.0431098,18.0004647 C13.7243665,18.0367124 14.8426863,17.9866518 15.2479749,17.8891475 L16.6833658,17.5438213 L18.1394002,20 L18.8105891,20 L18.5809594,16.4951493 L19.4854657,15.5283995 C20.4907957,14.4538464 21,13.2279521 21,11.9497097 C21,8.62492892 17.4062366,5.72493731 12.8076103,5.72493731 C11.976682,5.72493731 11.1678296,5.82094337 10.4046421,6.00889445 L8.4590699,6.48804355 L7.6695206,5.39242771 L7.28759532,4.86245018 C7.21058139,4.75557774 7.10773958,4.65511151 6.97512572,4.56258985 Z M20.9459125,16.8948164 L20.6333222,17.2289176 L20.8761114,20.9346225 C20.9122184,21.4857257 20.4947315,21.9617536 19.9436283,21.9978606 C19.9291194,21.9988112 19.13781,21.9995243 17.5697001,22 C17.2165446,22 16.8895758,21.8137258 16.7094886,21.5099374 L15.7157869,19.8336659 C15.0890319,19.9844506 13.8504363,20.0398953 12,20 L11.2763932,21.4472136 C11.1070012,21.7859976 10.7607381,22 10.381966,22 L8,22 C7.44771525,22 7,21.5522847 7,21 L7,19 C5.79772527,18.1606214 4.33224779,16.3670038 3.73591907,15.1435027 L3.54596342,14.753718 L1.72883265,14.2417907 C1.2977624,14.1203484 1,13.7271087 1,13.2792585 L1,10 C1,9.44771525 1.44771525,9 2,9 L4,9 C4.0770791,8.75273128 4.2334014,8.41939794 4.46896692,8 C4.70453243,7.58060206 5.05301209,7.033391 5.51440588,6.35836682 L4.47115591,3.58897638 C4.27646235,3.07214676 4.53760523,2.49534325 5.05443485,2.30064969 C5.15488359,2.2628099 5.26076949,2.24138944 5.36802776,2.2372106 C6.08981759,2.20908931 6.60068587,2.24277089 6.90063257,2.33825536 C7.79028856,2.62148163 8.46640093,3.07733535 8.91019037,3.69318319 L9.29209342,4.22312986 L9.92637912,4.06692008 C10.8477892,3.84000331 11.8172004,3.72493731 12.8076103,3.72493731 C18.4277197,3.72493731 23,7.41453276 23,11.9497097 C23,13.7484839 22.2897434,15.4584546 20.9459125,16.8948164 Z M11.259499,7.66567204 C11.4102856,7.64254011 14.9828803,7.12538912 17.6739872,9.38201044 L16.4279865,10.8679315 C15.3807462,9.98976606 14.1085607,9.68708684 13.2257197,9.58781734 C12.2676302,9.48005557 11.5602939,9.58142088 11.5534726,9.58248761 L11.259499,7.66567204 Z M8,12 C7.44771525,12 7,11.5522847 7,11 C7,10.4477153 7.44771525,10 8,10 C8.55228475,10 9,10.4477153 9,11 C9,11.5522847 8.55228475,12 8,12 Z" id="path-1"></path>
    </defs>
    <g id="Symbols" stroke="none" stroke-width="1" fill="none" fill-rule="evenodd">
        <g id="Icon-/-Savings">
            <rect id="Rectangle-7" fill-opacity="0" fill="#000000" transform="translate(12.000000, 12.000000) scale(-1, 1) translate(-12.000000, -12.000000) " x="0" y="0" width="24" height="24"></rect>
            <mask id="mask-2" fill="white">
                <use xlink:href="#path-1"></use>
            </mask>
            <use id="Shape" fill="#FFFFFF" fill-rule="nonzero" xlink:href="#path-1"></use>
            <g id="Icon-State-/-Normal" mask="url(#mask-2)" fill="#4D4D52">
                <rect id="Rectangle-13" x="0" y="0" width="24" height="24"></rect>
            </g>
        </g>
    </g>
</svg>