<?xml version="1.0" encoding="UTF-8"?>
<svg width="21px" height="21px" viewBox="0 0 21 21" version="1.1" xmlns="http://www.w3.org/2000/svg" xmlns:xlink="http://www.w3.org/1999/xlink">
    <!-- Generator: sketchtool 44.1 (41455) - http://www.bohemiancoding.com/sketch -->
    <title>AE342EA1-FDA2-4FAE-9937-312DB61A65E0</title>
    <desc>Created with sketchtool.</desc>
    <defs>
        <path d="M3.94898349,15.46171 L4.09198312,15.4592424 C4.38588679,15.444955 4.74034295,15.4773431 5.05248239,15.5858761 C5.32802301,15.6816833 5.51548653,15.8190454 5.622387,16.0034208 C5.67243177,16.089735 5.70416001,16.1842355 5.71952296,16.2913936 C5.75937452,16.5693623 5.68661632,16.9220605 5.52978069,17.2850128 C5.4503407,17.4688545 5.3733691,17.6049256 5.33411697,17.663592 L5.27689281,17.7605093 C4.77878764,18.7241922 5.13758388,19.9310841 6.0744723,20.4745749 L8.43380364,21.8432276 C9.36860482,22.3855076 10.5705234,22.090971 11.1690628,21.2022121 L11.2363054,21.0862892 C11.3000135,20.9572401 11.4474208,20.7234034 11.6539596,20.4948829 C11.9449947,20.1728735 12.2342551,20.0050969 12.4925495,20.0050969 C12.7508439,20.0050969 13.0401042,20.1728735 13.3311391,20.4948828 C13.5376778,20.7234032 13.685085,20.9572399 13.748793,21.086289 L13.8024752,21.1815289 C14.3868988,22.0974284 15.6127361,22.3876872 16.5512946,21.8432276 L18.9106259,20.4745749 C19.8408381,19.934957 20.1873566,18.7464167 19.7337672,17.7789142 L19.6717278,17.6661072 C19.6303622,17.6011758 19.5519005,17.4565081 19.4713696,17.2638781 C19.32952,16.9245738 19.2546542,16.5949403 19.2714863,16.3313208 C19.279815,16.2008777 19.3099098,16.0945049 19.3617669,16.0055766 C19.457553,15.8413161 19.6504833,15.7068048 19.9439993,15.6101582 C20.2758283,15.5008962 20.648005,15.4662702 20.9293291,15.4757973 C20.9450727,15.4764408 21.0440443,15.4770867 21.0440443,15.4770867 C22.1359875,15.4297481 23.0016359,14.527111 22.9999977,13.4258198 L22.9959289,10.6905822 C22.9943396,9.62216148 22.1556603,8.7202589 21.1011356,8.61376509 L20.9690469,8.60920431 C20.7118493,8.61336535 20.3238181,8.56838288 19.9706356,8.43736676 C19.6725954,8.32680613 19.469654,8.17705586 19.3623354,7.99253988 C19.3200629,7.91985946 19.2918294,7.84301905 19.2756567,7.7587075 C19.2256277,7.49789568 19.2920759,7.15992298 19.4480006,6.80992568 C19.5230668,6.64142798 19.5954757,6.51781905 19.630918,6.46684181 L19.6932959,6.36454952 C20.2037329,5.40214572 19.851282,4.1904786 18.9106259,3.64480218 L16.5512946,2.27614948 C15.624997,1.73880245 14.4279034,2.01447025 13.811005,2.88060707 L13.7365719,3.00274436 C13.6780718,3.11629055 13.5379515,3.32811428 13.3395204,3.53609946 C13.0547076,3.83462545 12.7663539,3.99204346 12.4925493,3.99204346 C12.2187446,3.99204346 11.9303908,3.83462543 11.645578,3.53609942 C11.4471468,3.32811423 11.3070266,3.11629049 11.2485264,3.00274428 L11.1888274,2.90187072 C10.5873987,2.0094698 9.36378174,1.73666738 8.43380364,2.27614948 L6.0744723,3.64480218 C5.13606066,4.1891766 4.79570849,5.36858073 5.27660553,6.34149752 L5.34944036,6.4655117 C5.38528047,6.51756224 5.45796053,6.64269469 5.53323035,6.8128398 C5.68658761,7.15949916 5.75384942,7.4945576 5.70844465,7.75348107 C5.69305625,7.8412344 5.66491806,7.92026029 5.62207906,7.9942511 C5.51707851,8.17560629 5.3152717,8.32426029 5.01736946,8.43451983 C4.6640302,8.56529771 4.27655071,8.61043934 4.01845867,8.60665414 C4.01810015,8.60664487 3.91617087,8.6094813 3.91617087,8.6094813 C2.84347885,8.69422598 2.00308315,9.60593777 2.0022075,10.6912629 L2.00000066,13.4265006 C1.99912074,14.5171119 2.86392789,15.4027143 3.94898349,15.46171 Z M4,10.6059733 C4.4722655,10.6135248 5.08476771,10.5421679 5.71158498,10.3101703 C6.41241912,10.0507777 6.98782987,9.62692126 7.3529091,8.99636256 C7.51588825,8.71486771 7.62324924,8.41334513 7.67838512,8.09892944 C7.80333307,7.38640607 7.66160288,6.6803904 7.36224803,6.00370795 C7.23151826,5.70819732 7.05965775,5.38545185 7.07804045,5.37478801 L9.47061978,3.91873996 C9.60935514,4.18801909 9.84909027,4.55043335 10.1985188,4.91668616 C10.8268054,5.57522348 11.5903241,5.99204346 12.4925493,5.99204346 C13.3947744,5.99204346 14.1582931,5.57522346 14.7865797,4.91668612 C15.1360082,4.5504333 15.5245339,3.99268124 15.5477265,4.00613531 C15.5477265,4.00613531 17.9313676,5.41812469 17.9264259,5.42744198 C17.9264259,5.42744198 17.7525141,5.70104572 17.6210958,5.99603453 C17.313703,6.6860253 17.1718401,7.40757727 17.3114666,8.13547925 C17.3693578,8.43727815 17.475778,8.72691243 17.6334914,8.99807378 C18.0001748,9.62852331 18.5753643,10.0529551 19.2750368,10.3125047 C19.9032139,10.5455325 20.5181103,10.6168143 21.0063696,10.6088011 C21.0230332,10.6084791 21.0432672,13.478782 20.9970213,13.4769432 C20.5011751,13.4601512 19.9124154,13.5149274 19.3184919,13.7104897 C18.5980883,13.9476983 18.0057627,14.3606688 17.6340599,14.9980905 C17.4181286,15.3683845 17.3028894,15.7757089 17.2755507,16.2038804 C17.236113,16.8215413 17.3757643,17.4364245 17.6261298,18.0352991 C17.7552874,18.3442442 17.9251389,18.7341002 17.9070578,18.7445891 L15.5477265,20.1132418 C15.5315491,20.1226263 15.163717,19.5397596 14.8149139,19.1538339 C14.1803791,18.4517665 13.4102849,18.0050969 12.4925495,18.0050969 C11.5748143,18.0050969 10.80472,18.4517664 10.170185,19.1538338 C9.82138186,19.5397594 9.4508704,20.1210723 9.43737179,20.1132418 L6.99636831,18.7757612 C7.09836749,18.623313 7.23327283,18.3848261 7.36570979,18.0783377 C7.65604582,17.406436 7.79987492,16.7092187 7.69928035,16.0075615 C7.64847759,15.6532071 7.53469322,15.3143076 7.35260115,15.0002464 C6.98219629,14.3613946 6.40563479,13.9389248 5.70932212,13.6968124 C5.11478581,13.4900882 3.99998905,13.4416995 4.00000001,13.4281142 L4,10.6059733 Z M16.4953497,11.9985702 C16.4953497,9.78788637 14.7032364,7.99577303 12.4925526,7.99577303 C10.2818687,7.99577303 8.48975539,9.78788637 8.48975539,11.9985702 C8.48975539,14.209254 10.2818687,16.0013674 12.4925526,16.0013674 C14.7032364,16.0013674 16.4953497,14.209254 16.4953497,11.9985702 Z M10.4897554,11.9985702 C10.4897554,10.8924559 11.3864382,9.99577303 12.4925526,9.99577303 C13.5986669,9.99577303 14.4953497,10.8924559 14.4953497,11.9985702 C14.4953497,13.1046845 13.5986669,14.0013674 12.4925526,14.0013674 C11.3864382,14.0013674 10.4897554,13.1046845 10.4897554,11.9985702 Z" id="path-1"></path>
    </defs>
    <g id="Components" stroke="none" stroke-width="1" fill="none" fill-rule="evenodd">
        <g id="Menu-Icons" transform="translate(-182.000000, -86.000000)">
            <g id="-g-Icon-/-Cart-Copy-11" transform="translate(180.000000, 84.000000)">
                <rect id="Rectangle-7" fill-opacity="0" fill="#000000" transform="translate(12.000000, 12.000000) scale(-1, 1) translate(-12.000000, -12.000000) " x="0" y="0" width="24" height="24"></rect>
                <mask id="mask-2" fill="white">
                    <use xlink:href="#path-1"></use>
                </mask>
                <use id="Combined-Shape" fill="#FFFFFF" fill-rule="nonzero" xlink:href="#path-1"></use>
                <g id="Icon-State-/-Dark-50%" mask="url(#mask-2)" fill="#000000" fill-opacity="0.5" opacity="0.5">
                    <rect id="Rectangle-13" x="0" y="0" width="24" height="24"></rect>
                </g>
            </g>
        </g>
    </g>
</svg>